# 3ds Max Wavefront OBJ Exporter v0.99 - (c)2007 guruware
# File Created: 05.02.2021 20:28:36

#
# object fireplace_dirt
#

v  0.6113 0.2305 -0.0016
v  0.6047 0.2305 0.0229
v  0.6269 0.2277 0.0254
v  0.6326 0.2267 -0.0086
v  0.6335 0.2274 -0.0228
v  0.6219 0.2305 -0.0245
v  0.8840 0.2305 -0.0016
v  0.8733 0.2305 -0.0245
v  0.8617 0.2274 -0.0228
v  0.8626 0.2267 -0.0086
v  0.8683 0.2277 0.0254
v  0.8905 0.2305 0.0229
v  0.6751 0.2305 -0.0776
v  0.6543 0.2305 -0.0631
v  0.6610 0.2274 -0.0556
v  0.6786 0.2267 -0.0634
v  0.6981 0.2274 -0.0770
v  0.6980 0.2305 -0.0883
v  0.8840 0.2305 0.0977
v  0.8905 0.2305 0.0733
v  0.8775 0.2274 0.0763
v  0.8652 0.2266 0.0991
v  0.8629 0.2274 0.1165
v  0.8733 0.2305 0.1206
v  0.8202 0.2305 0.1737
v  0.8409 0.2305 0.1592
v  0.8354 0.2274 0.1492
v  0.8192 0.2266 0.1540
v  0.7983 0.2274 0.1706
v  0.7972 0.2305 0.1844
v  0.7224 0.2305 0.1910
v  0.7476 0.2305 0.1932
v  0.7476 0.2276 0.1676
v  0.7102 0.2266 0.1664
v  0.6969 0.2274 0.1706
v  0.6980 0.2305 0.1844
v  0.7728 0.2305 -0.0948
v  0.7476 0.2305 -0.0971
v  0.7476 0.2277 -0.0774
v  0.7825 0.2267 -0.0759
v  0.7972 0.2274 -0.0770
v  0.7972 0.2305 -0.0883
v  0.6365 0.2305 0.1413
v  0.6543 0.2305 0.1592
v  0.6599 0.2274 0.1492
v  0.6482 0.2266 0.1306
v  0.6324 0.2274 0.1165
v  0.6219 0.2305 0.1206
v  0.6025 0.2305 0.0481
v  0.6047 0.2305 0.0733
v  0.6177 0.2274 0.0763
v  0.6237 0.2266 0.0634
v  0.8588 0.2305 -0.0452
v  0.8409 0.2305 -0.0631
v  0.8342 0.2274 -0.0556
v  0.8444 0.2267 -0.0401
v  0.6365 0.2305 -0.0452
v  0.6508 0.2267 -0.0401
v  0.8927 0.2305 0.0481
v  0.8715 0.2266 0.0634
v  0.7224 0.2305 -0.0948
v  0.7128 0.2267 -0.0759
v  0.8588 0.2305 0.1413
v  0.8470 0.2266 0.1306
v  0.7728 0.2305 0.1910
v  0.7851 0.2266 0.1664
v  0.6751 0.2305 0.1737
v  0.6760 0.2266 0.1540
v  0.8202 0.2305 -0.0776
v  0.8166 0.2267 -0.0634
v  0.6113 0.2305 0.0977
v  0.6300 0.2266 0.0991
v  0.8144 0.2280 -0.0356
v  0.7476 0.2318 -0.0352
v  0.7476 0.2364 0.0299
v  0.8184 0.2317 0.0302
v  0.6808 0.2280 -0.0356
v  0.6768 0.2317 0.0302
v  0.8247 0.2275 0.1093
v  0.7476 0.2315 0.1079
v  0.6705 0.2275 0.1093
v  3.0166 0.2305 0.2081
v  3.0407 0.2305 0.2005
v  3.0309 0.2277 0.1804
v  2.9991 0.2267 0.1939
v  2.9867 0.2274 0.2008
v  2.9915 0.2305 0.2114
v  2.8698 0.2305 -0.0218
v  2.8562 0.2305 -0.0004
v  2.8639 0.2274 0.0084
v  2.8753 0.2267 0.0001
v  2.9010 0.2277 -0.0231
v  2.8868 0.2305 -0.0404
v  2.9181 0.2305 0.1952
v  2.9415 0.2305 0.2049
v  2.9442 0.2274 0.1952
v  2.9282 0.2267 0.1846
v  2.9063 0.2274 0.1755
v  2.8968 0.2305 0.1817
v  2.9534 0.2305 -0.0752
v  2.9293 0.2305 -0.0676
v  2.9389 0.2274 -0.0582
v  2.9648 0.2266 -0.0601
v  2.9806 0.2274 -0.0675
v  2.9785 0.2305 -0.0785
v  3.0519 0.2305 -0.0623
v  3.0285 0.2305 -0.0720
v  3.0230 0.2274 -0.0619
v  3.0357 0.2266 -0.0509
v  3.0610 0.2274 -0.0422
v  3.0732 0.2305 -0.0488
v  3.1190 0.2305 0.0108
v  3.1073 0.2305 -0.0116
v  3.0858 0.2276 0.0021
v  3.1049 0.2266 0.0343
v  3.1156 0.2274 0.0432
v  3.1266 0.2305 0.0349
v  2.8510 0.2305 0.1221
v  2.8627 0.2305 0.1446
v  2.8793 0.2277 0.1340
v  2.8618 0.2267 0.1038
v  2.8529 0.2274 0.0920
v  2.8433 0.2305 0.0980
v  3.1234 0.2305 0.1099
v  3.1289 0.2305 0.0852
v  3.1175 0.2274 0.0860
v  3.1081 0.2266 0.1058
v  3.1047 0.2274 0.1268
v  3.1138 0.2305 0.1333
v  3.0631 0.2305 0.1888
v  3.0832 0.2305 0.1733
v  3.0787 0.2274 0.1607
v  3.0646 0.2266 0.1626
v  2.8466 0.2305 0.0230
v  2.8411 0.2305 0.0477
v  2.8510 0.2274 0.0493
v  2.8586 0.2267 0.0323
v  2.9662 0.2305 0.2103
v  2.9628 0.2267 0.1955
v  2.9069 0.2305 -0.0558
v  2.9312 0.2266 -0.0462
v  2.8781 0.2305 0.1646
v  2.8993 0.2267 0.1625
v  3.0038 0.2305 -0.0774
v  3.0011 0.2266 -0.0617
v  3.0919 0.2305 -0.0317
v  3.0646 0.2266 -0.0288
v  3.1300 0.2305 0.0600
v  3.1128 0.2266 0.0698
v  2.8400 0.2305 0.0729
v  2.8539 0.2267 0.0683
v  3.1002 0.2305 0.1547
v  3.0913 0.2266 0.1381
v  2.8785 0.2280 0.0552
v  2.9148 0.2318 0.1113
v  2.9697 0.2364 0.0762
v  2.9318 0.2317 0.0164
v  2.9504 0.2280 0.1678
v  3.0080 0.2317 0.1357
v  2.9951 0.2275 -0.0315
v  3.0354 0.2315 0.0343
v  3.0781 0.2275 0.0985
# 162 vertices

vn 0.1729 0.9844 0.0326
vn 0.1227 0.9922 0.0213
vn 0.0399 0.9992 0.0085
vn 0.0742 0.9972 0.0133
vn 0.1347 0.9868 0.0900
vn 0.2379 0.9624 0.1314
vn -0.1724 0.9845 0.0325
vn -0.2379 0.9623 0.1316
vn -0.1344 0.9869 0.0897
vn -0.0737 0.9972 0.0133
vn -0.0399 0.9992 0.0084
vn -0.1228 0.9922 0.0211
vn 0.1338 0.9629 0.2345
vn 0.1898 0.9556 0.2254
vn 0.1022 0.9871 0.1236
vn 0.0445 0.9955 0.0836
vn 0.0652 0.9866 0.1494
vn 0.0905 0.9606 0.2627
vn -0.2202 0.9722 -0.0794
vn -0.2399 0.9701 -0.0372
vn -0.1472 0.9885 -0.0344
vn -0.0772 0.9968 -0.0215
vn -0.1338 0.9875 -0.0827
vn -0.2345 0.9629 -0.1333
vn -0.1143 0.9732 -0.1993
vn -0.1693 0.9639 -0.2057
vn -0.1054 0.9876 -0.1162
vn -0.0327 0.9970 -0.0699
vn -0.0586 0.9889 -0.1368
vn -0.0765 0.9715 -0.2243
vn 0.0033 0.9887 -0.1498
vn -0.0000 0.9936 -0.1126
vn -0.0000 0.9992 -0.0400
vn -0.0004 0.9981 -0.0613
vn 0.0587 0.9889 -0.1367
vn 0.0767 0.9715 -0.2243
vn -0.0073 0.9817 0.1903
vn 0.0000 0.9900 0.1407
vn -0.0000 0.9991 0.0419
vn -0.0022 0.9969 0.0785
vn -0.0653 0.9866 0.1498
vn -0.0904 0.9604 0.2635
vn 0.1906 0.9685 -0.1604
vn 0.1685 0.9642 -0.2046
vn 0.1051 0.9877 -0.1158
vn 0.0713 0.9956 -0.0607
vn 0.1331 0.9877 -0.0824
vn 0.2329 0.9635 -0.1321
vn 0.1595 0.9870 0.0214
vn 0.2400 0.9701 -0.0375
vn 0.1474 0.9885 -0.0347
vn 0.0621 0.9980 0.0113
vn -0.2046 0.9640 0.1697
vn -0.1898 0.9556 0.2254
vn -0.1020 0.9871 0.1235
vn -0.0728 0.9958 0.0558
vn 0.2053 0.9637 0.1704
vn 0.0733 0.9957 0.0562
vn -0.1595 0.9870 0.0214
vn -0.0621 0.9980 0.0113
vn 0.0073 0.9817 0.1903
vn 0.0021 0.9969 0.0784
vn -0.1904 0.9686 -0.1602
vn -0.0706 0.9957 -0.0602
vn -0.0033 0.9887 -0.1498
vn 0.0002 0.9981 -0.0613
vn 0.1146 0.9732 -0.1996
vn 0.0331 0.9970 -0.0702
vn -0.1339 0.9630 0.2340
vn -0.0442 0.9956 0.0831
vn 0.2207 0.9721 -0.0799
vn 0.0779 0.9967 -0.0220
vn 0.0406 0.9981 -0.0466
vn 0.0000 0.9965 -0.0835
vn 0.0000 1.0000 -0.0053
vn 0.0727 0.9973 -0.0050
vn -0.0406 0.9981 -0.0466
vn -0.0727 0.9973 -0.0050
vn 0.0337 0.9990 0.0300
vn 0.0000 0.9980 0.0639
vn -0.0337 0.9990 0.0300
vn -0.0654 0.9845 -0.1630
vn -0.0481 0.9922 -0.1148
vn -0.0143 0.9992 -0.0382
vn -0.0285 0.9972 -0.0693
vn 0.0033 0.9866 -0.1629
vn -0.0171 0.9617 -0.2735
vn 0.1201 0.9845 0.1277
vn 0.2393 0.9623 0.1296
vn 0.1484 0.9868 0.0651
vn 0.0511 0.9972 0.0549
vn 0.0285 0.9992 0.0289
vn 0.0837 0.9922 0.0919
vn 0.1254 0.9630 -0.2387
vn 0.0877 0.9557 -0.2810
vn 0.0491 0.9871 -0.1524
vn 0.0464 0.9955 -0.0824
vn 0.0904 0.9867 -0.1349
vn 0.1719 0.9609 -0.2171
vn 0.0513 0.9723 0.2279
vn 0.0974 0.9705 0.2206
vn 0.0499 0.9886 0.1421
vn 0.0233 0.9968 0.0765
vn 0.0022 0.9876 0.1570
vn 0.0137 0.9631 0.2688
vn -0.1061 0.9734 0.2033
vn -0.0817 0.9644 0.2515
vn -0.0409 0.9877 0.1507
vn -0.0411 0.9970 0.0653
vn -0.0834 0.9889 0.1226
vn -0.1472 0.9718 0.1843
vn -0.1284 0.9886 0.0782
vn -0.0953 0.9936 0.0608
vn -0.0340 0.9992 0.0217
vn -0.0515 0.9981 0.0334
vn -0.1470 0.9888 0.0245
vn -0.2309 0.9713 0.0568
vn 0.1639 0.9818 -0.0962
vn 0.1187 0.9900 -0.0757
vn 0.0352 0.9991 -0.0224
vn 0.0666 0.9970 -0.0403
vn 0.1607 0.9867 -0.0255
vn 0.2695 0.9608 -0.0651
vn -0.2383 0.9683 -0.0746
vn -0.2644 0.9639 -0.0322
vn -0.1547 0.9876 -0.0265
vn -0.0896 0.9956 -0.0274
vn -0.1417 0.9876 -0.0682
vn -0.2384 0.9630 -0.1256
vn -0.0677 0.9870 -0.1455
vn -0.1603 0.9702 -0.1815
vn -0.1081 0.9886 -0.1052
vn -0.0239 0.9980 -0.0581
vn 0.2540 0.9638 0.0815
vn 0.2928 0.9554 0.0391
vn 0.1594 0.9870 0.0198
vn 0.0868 0.9957 0.0316
vn 0.0333 0.9637 -0.2650
vn 0.0080 0.9957 -0.0920
vn 0.1039 0.9870 0.1227
vn 0.0430 0.9980 0.0464
vn 0.1558 0.9819 -0.1081
vn 0.0644 0.9970 -0.0437
vn -0.0325 0.9686 0.2463
vn -0.0129 0.9957 0.0920
vn -0.1247 0.9887 0.0835
vn -0.0519 0.9981 0.0329
vn -0.2292 0.9733 0.0108
vn -0.0761 0.9971 0.0100
vn 0.2692 0.9630 -0.0131
vn 0.0939 0.9956 -0.0074
vn -0.1855 0.9722 -0.1429
vn -0.0598 0.9968 -0.0536
vn -0.0611 0.9981 -0.0091
vn -0.0704 0.9965 0.0450
vn -0.0044 1.0000 0.0028
vn -0.0434 0.9973 -0.0586
vn -0.0174 0.9981 0.0593
vn 0.0349 0.9973 0.0639
vn 0.0072 0.9990 -0.0446
vn 0.0539 0.9980 -0.0344
vn 0.0434 0.9990 0.0122
# 162 vertex normals

vt 0.3123 0.0010 0.0000
vt 0.3626 0.0089 0.0000
vt 0.3491 0.0517 0.0000
vt 0.2820 0.0344 0.0000
vt 0.2552 0.0244 0.0000
vt 0.2615 0.0017 0.0000
vt 0.0893 0.5018 0.0000
vt 0.0559 0.4635 0.0000
vt 0.0686 0.4436 0.0000
vt 0.0939 0.4568 0.0000
vt 0.1517 0.4951 0.0000
vt 0.1289 0.5338 0.0000
vt 0.1205 0.0560 0.0000
vt 0.1641 0.0297 0.0000
vt 0.1724 0.0481 0.0000
vt 0.1437 0.0741 0.0000
vt 0.1028 0.0988 0.0000
vt 0.0821 0.0893 0.0000
vt 0.2716 0.5830 0.0000
vt 0.2215 0.5750 0.0000
vt 0.2376 0.5536 0.0000
vt 0.2896 0.5497 0.0000
vt 0.3234 0.5597 0.0000
vt 0.3224 0.5821 0.0000
vt 0.4634 0.5280 0.0000
vt 0.4198 0.5542 0.0000
vt 0.4060 0.5359 0.0000
vt 0.4280 0.5101 0.0000
vt 0.4756 0.4853 0.0000
vt 0.5018 0.4945 0.0000
vt 0.5751 0.3625 0.0000
vt 0.5586 0.4106 0.0000
vt 0.5116 0.3897 0.0000
vt 0.5399 0.3200 0.0000
vt 0.5585 0.2990 0.0000
vt 0.5830 0.3123 0.0000
vt 0.0090 0.2214 0.0000
vt 0.0254 0.1732 0.0000
vt 0.0616 0.1893 0.0000
vt 0.0358 0.2547 0.0000
vt 0.0218 0.2808 0.0000
vt 0.0010 0.2715 0.0000
vt 0.5541 0.1641 0.0000
vt 0.5724 0.2115 0.0000
vt 0.5495 0.2136 0.0000
vt 0.5249 0.1769 0.0000
vt 0.5119 0.1363 0.0000
vt 0.5280 0.1204 0.0000
vt 0.4107 0.0255 0.0000
vt 0.4552 0.0501 0.0000
vt 0.4501 0.0765 0.0000
vt 0.4215 0.0769 0.0000
vt 0.0298 0.4199 0.0000
vt 0.0115 0.3724 0.0000
vt 0.0308 0.3662 0.0000
vt 0.0509 0.3976 0.0000
vt 0.2116 0.0116 0.0000
vt 0.2092 0.0421 0.0000
vt 0.1734 0.5585 0.0000
vt 0.2189 0.5320 0.0000
vt 0.0502 0.1288 0.0000
vt 0.0928 0.1267 0.0000
vt 0.3723 0.5724 0.0000
vt 0.3623 0.5420 0.0000
vt 0.5339 0.4551 0.0000
vt 0.4787 0.4576 0.0000
vt 0.5820 0.2615 0.0000
vt 0.5451 0.2471 0.0000
vt 0.0018 0.3225 0.0000
vt 0.0309 0.3275 0.0000
vt 0.4946 0.0822 0.0000
vt 0.4819 0.1177 0.0000
vt 0.0837 0.3462 0.0000
vt 0.1391 0.2239 0.0000
vt 0.2586 0.2771 0.0000
vt 0.2013 0.4074 0.0000
vt 0.1930 0.1008 0.0000
vt 0.3171 0.1473 0.0000
vt 0.3414 0.4836 0.0000
vt 0.4019 0.3409 0.0000
vt 0.4675 0.2004 0.0000
vt 0.4726 0.5355 0.0000
vt 0.5053 0.4966 0.0000
vt 0.5353 0.5305 0.0000
vt 0.4860 0.5794 0.0000
vt 0.4636 0.5970 0.0000
vt 0.4471 0.5796 0.0000
vt 0.7835 0.9824 0.0000
vt 0.7335 0.9913 0.0000
vt 0.7238 0.9709 0.0000
vt 0.7481 0.9561 0.0000
vt 0.8105 0.9259 0.0000
vt 0.8310 0.9650 0.0000
vt 0.4203 0.7280 0.0000
vt 0.4205 0.6772 0.0000
vt 0.4411 0.6801 0.0000
vt 0.4484 0.7179 0.0000
vt 0.4481 0.7653 0.0000
vt 0.4287 0.7777 0.0000
vt 0.9467 0.8679 0.0000
vt 0.9140 0.9068 0.0000
vt 0.9047 0.8824 0.0000
vt 0.9284 0.8359 0.0000
vt 0.9541 0.8121 0.0000
vt 0.9722 0.8239 0.0000
vt 0.9990 0.6754 0.0000
vt 0.9988 0.7262 0.0000
vt 0.9765 0.7292 0.0000
vt 0.9662 0.6975 0.0000
vt 0.9695 0.6438 0.0000
vt 0.9905 0.6257 0.0000
vt 0.9159 0.4955 0.0000
vt 0.9482 0.5342 0.0000
vt 0.9069 0.5641 0.0000
vt 0.8624 0.5044 0.0000
vt 0.8541 0.4777 0.0000
vt 0.8773 0.4631 0.0000
vt 0.5033 0.9079 0.0000
vt 0.4709 0.8691 0.0000
vt 0.5038 0.8469 0.0000
vt 0.5462 0.9024 0.0000
vt 0.5610 0.9278 0.0000
vt 0.5419 0.9405 0.0000
vt 0.7364 0.4121 0.0000
vt 0.7863 0.4206 0.0000
vt 0.7766 0.4417 0.0000
vt 0.7329 0.4442 0.0000
vt 0.6914 0.4344 0.0000
vt 0.6858 0.4121 0.0000
vt 0.5442 0.4640 0.0000
vt 0.5883 0.4385 0.0000
vt 0.6087 0.4569 0.0000
vt 0.5944 0.4817 0.0000
vt 0.6829 0.9914 0.0000
vt 0.6330 0.9828 0.0000
vt 0.6383 0.9637 0.0000
vt 0.6757 0.9627 0.0000
vt 0.4296 0.6273 0.0000
vt 0.4550 0.6455 0.0000
vt 0.8749 0.9394 0.0000
vt 0.8767 0.8877 0.0000
vt 0.4458 0.8254 0.0000
vt 0.4668 0.7883 0.0000
vt 0.9897 0.7761 0.0000
vt 0.9594 0.7698 0.0000
vt 0.9734 0.5780 0.0000
vt 0.9477 0.6271 0.0000
vt 0.8336 0.4377 0.0000
vt 0.8030 0.4628 0.0000
vt 0.5857 0.9657 0.0000
vt 0.6056 0.9440 0.0000
vt 0.6358 0.4211 0.0000
vt 0.6603 0.4508 0.0000
vt 0.6486 0.9081 0.0000
vt 0.5723 0.7976 0.0000
vt 0.6787 0.7217 0.0000
vt 0.7607 0.8382 0.0000
vt 0.4963 0.6893 0.0000
vt 0.5994 0.6063 0.0000
vt 0.8988 0.7579 0.0000
vt 0.8077 0.6325 0.0000
vt 0.7230 0.5052 0.0000
# 162 texture coords

o fireplace_dirt
g fireplace_dirt
f 1/1/1 2/2/2 3/3/3 
f 1/1/1 3/3/3 4/4/4 
f 1/1/1 4/4/4 5/5/5 
f 1/1/1 5/5/5 6/6/6 
f 7/7/7 8/8/8 9/9/9 
f 7/7/7 9/9/9 10/10/10 
f 7/7/7 10/10/10 11/11/11 
f 7/7/7 11/11/11 12/12/12 
f 13/13/13 14/14/14 15/15/15 
f 13/13/13 15/15/15 16/16/16 
f 13/13/13 16/16/16 17/17/17 
f 13/13/13 17/17/17 18/18/18 
f 19/19/19 20/20/20 21/21/21 
f 19/19/19 21/21/21 22/22/22 
f 19/19/19 22/22/22 23/23/23 
f 19/19/19 23/23/23 24/24/24 
f 25/25/25 26/26/26 27/27/27 
f 25/25/25 27/27/27 28/28/28 
f 25/25/25 28/28/28 29/29/29 
f 25/25/25 29/29/29 30/30/30 
f 31/31/31 32/32/32 33/33/33 
f 31/31/31 33/33/33 34/34/34 
f 31/31/31 34/34/34 35/35/35 
f 31/31/31 35/35/35 36/36/36 
f 37/37/37 38/38/38 39/39/39 
f 37/37/37 39/39/39 40/40/40 
f 37/37/37 40/40/40 41/41/41 
f 37/37/37 41/41/41 42/42/42 
f 43/43/43 44/44/44 45/45/45 
f 43/43/43 45/45/45 46/46/46 
f 43/43/43 46/46/46 47/47/47 
f 43/43/43 47/47/47 48/48/48 
f 49/49/49 50/50/50 51/51/51 
f 49/49/49 51/51/51 52/52/52 
f 49/49/49 52/52/52 3/3/3 
f 49/49/49 3/3/3 2/2/2 
f 53/53/53 54/54/54 55/55/55 
f 53/53/53 55/55/55 56/56/56 
f 53/53/53 56/56/56 9/9/9 
f 53/53/53 9/9/9 8/8/8 
f 57/57/57 6/6/6 5/5/5 
f 57/57/57 5/5/5 58/58/58 
f 57/57/57 58/58/58 15/15/15 
f 57/57/57 15/15/15 14/14/14 
f 59/59/59 12/12/12 11/11/11 
f 59/59/59 11/11/11 60/60/60 
f 59/59/59 60/60/60 21/21/21 
f 59/59/59 21/21/21 20/20/20 
f 61/61/61 18/18/18 17/17/17 
f 61/61/61 17/17/17 62/62/62 
f 61/61/61 62/62/62 39/39/39 
f 61/61/61 39/39/39 38/38/38 
f 63/63/63 24/24/24 23/23/23 
f 63/63/63 23/23/23 64/64/64 
f 63/63/63 64/64/64 27/27/27 
f 63/63/63 27/27/27 26/26/26 
f 65/65/65 30/30/30 29/29/29 
f 65/65/65 29/29/29 66/66/66 
f 65/65/65 66/66/66 33/33/33 
f 65/65/65 33/33/33 32/32/32 
f 67/67/67 36/36/36 35/35/35 
f 67/67/67 35/35/35 68/68/68 
f 67/67/67 68/68/68 45/45/45 
f 67/67/67 45/45/45 44/44/44 
f 69/69/69 42/42/42 41/41/41 
f 69/69/69 41/41/41 70/70/70 
f 69/69/69 70/70/70 55/55/55 
f 69/69/69 55/55/55 54/54/54 
f 71/71/71 48/48/48 47/47/47 
f 71/71/71 47/47/47 72/72/72 
f 71/71/71 72/72/72 51/51/51 
f 71/71/71 51/51/51 50/50/50 
f 73/73/73 40/40/40 39/39/39 
f 73/73/73 39/39/39 74/74/74 
f 73/73/73 74/74/74 75/75/75 
f 73/73/73 75/75/75 76/76/76 
f 73/73/73 76/76/76 11/11/11 
f 73/73/73 11/11/11 10/10/10 
f 73/73/73 10/10/10 9/9/9 
f 73/73/73 9/9/9 56/56/56 
f 73/73/73 56/56/56 55/55/55 
f 73/73/73 55/55/55 70/70/70 
f 73/73/73 70/70/70 41/41/41 
f 73/73/73 41/41/41 40/40/40 
f 77/77/77 62/62/62 17/17/17 
f 77/77/77 17/17/17 16/16/16 
f 77/77/77 16/16/16 15/15/15 
f 77/77/77 15/15/15 58/58/58 
f 77/77/77 58/58/58 5/5/5 
f 77/77/77 5/5/5 4/4/4 
f 77/77/77 4/4/4 3/3/3 
f 77/77/77 3/3/3 78/78/78 
f 77/77/77 78/78/78 75/75/75 
f 77/77/77 75/75/75 74/74/74 
f 77/77/77 74/74/74 39/39/39 
f 77/77/77 39/39/39 62/62/62 
f 79/79/79 76/76/76 75/75/75 
f 79/79/79 75/75/75 80/80/80 
f 79/79/79 80/80/80 33/33/33 
f 79/79/79 33/33/33 66/66/66 
f 79/79/79 66/66/66 29/29/29 
f 79/79/79 29/29/29 28/28/28 
f 79/79/79 28/28/28 27/27/27 
f 79/79/79 27/27/27 64/64/64 
f 79/79/79 64/64/64 23/23/23 
f 79/79/79 23/23/23 22/22/22 
f 79/79/79 22/22/22 21/21/21 
f 79/79/79 21/21/21 60/60/60 
f 79/79/79 60/60/60 11/11/11 
f 79/79/79 11/11/11 76/76/76 
f 81/81/81 80/80/80 75/75/75 
f 81/81/81 75/75/75 78/78/78 
f 81/81/81 78/78/78 3/3/3 
f 81/81/81 3/3/3 52/52/52 
f 81/81/81 52/52/52 51/51/51 
f 81/81/81 51/51/51 72/72/72 
f 81/81/81 72/72/72 47/47/47 
f 81/81/81 47/47/47 46/46/46 
f 81/81/81 46/46/46 45/45/45 
f 81/81/81 45/45/45 68/68/68 
f 81/81/81 68/68/68 35/35/35 
f 81/81/81 35/35/35 34/34/34 
f 81/81/81 34/34/34 33/33/33 
f 81/81/81 33/33/33 80/80/80 
f 82/82/82 83/83/83 84/84/84 
f 82/82/82 84/84/84 85/85/85 
f 82/82/82 85/85/85 86/86/86 
f 82/82/82 86/86/86 87/87/87 
f 88/88/88 89/89/89 90/90/90 
f 88/88/88 90/90/90 91/91/91 
f 88/88/88 91/91/91 92/92/92 
f 88/88/88 92/92/92 93/93/93 
f 94/94/94 95/95/95 96/96/96 
f 94/94/94 96/96/96 97/97/97 
f 94/94/94 97/97/97 98/98/98 
f 94/94/94 98/98/98 99/99/99 
f 100/100/100 101/101/101 102/102/102 
f 100/100/100 102/102/102 103/103/103 
f 100/100/100 103/103/103 104/104/104 
f 100/100/100 104/104/104 105/105/105 
f 106/106/106 107/107/107 108/108/108 
f 106/106/106 108/108/108 109/109/109 
f 106/106/106 109/109/109 110/110/110 
f 106/106/106 110/110/110 111/111/111 
f 112/112/112 113/113/113 114/114/114 
f 112/112/112 114/114/114 115/115/115 
f 112/112/112 115/115/115 116/116/116 
f 112/112/112 116/116/116 117/117/117 
f 118/118/118 119/119/119 120/120/120 
f 118/118/118 120/120/120 121/121/121 
f 118/118/118 121/121/121 122/122/122 
f 118/118/118 122/122/122 123/123/123 
f 124/124/124 125/125/125 126/126/126 
f 124/124/124 126/126/126 127/127/127 
f 124/124/124 127/127/127 128/128/128 
f 124/124/124 128/128/128 129/129/129 
f 130/130/130 131/131/131 132/132/132 
f 130/130/130 132/132/132 133/133/133 
f 130/130/130 133/133/133 84/84/84 
f 130/130/130 84/84/84 83/83/83 
f 134/134/134 135/135/135 136/136/136 
f 134/134/134 136/136/136 137/137/137 
f 134/134/134 137/137/137 90/90/90 
f 134/134/134 90/90/90 89/89/89 
f 138/138/138 87/87/87 86/86/86 
f 138/138/138 86/86/86 139/139/139 
f 138/138/138 139/139/139 96/96/96 
f 138/138/138 96/96/96 95/95/95 
f 140/140/140 93/93/93 92/92/92 
f 140/140/140 92/92/92 141/141/141 
f 140/140/140 141/141/141 102/102/102 
f 140/140/140 102/102/102 101/101/101 
f 142/142/142 99/99/99 98/98/98 
f 142/142/142 98/98/98 143/143/143 
f 142/142/142 143/143/143 120/120/120 
f 142/142/142 120/120/120 119/119/119 
f 144/144/144 105/105/105 104/104/104 
f 144/144/144 104/104/104 145/145/145 
f 144/144/144 145/145/145 108/108/108 
f 144/144/144 108/108/108 107/107/107 
f 146/146/146 111/111/111 110/110/110 
f 146/146/146 110/110/110 147/147/147 
f 146/146/146 147/147/147 114/114/114 
f 146/146/146 114/114/114 113/113/113 
f 148/148/148 117/117/117 116/116/116 
f 148/148/148 116/116/116 149/149/149 
f 148/148/148 149/149/149 126/126/126 
f 148/148/148 126/126/126 125/125/125 
f 150/150/150 123/123/123 122/122/122 
f 150/150/150 122/122/122 151/151/151 
f 150/150/150 151/151/151 136/136/136 
f 150/150/150 136/136/136 135/135/135 
f 152/152/152 129/129/129 128/128/128 
f 152/152/152 128/128/128 153/153/153 
f 152/152/152 153/153/153 132/132/132 
f 152/152/152 132/132/132 131/131/131 
f 154/154/154 121/121/121 120/120/120 
f 154/154/154 120/120/120 155/155/155 
f 154/154/154 155/155/155 156/156/156 
f 154/154/154 156/156/156 157/157/157 
f 154/154/154 157/157/157 92/92/92 
f 154/154/154 92/92/92 91/91/91 
f 154/154/154 91/91/91 90/90/90 
f 154/154/154 90/90/90 137/137/137 
f 154/154/154 137/137/137 136/136/136 
f 154/154/154 136/136/136 151/151/151 
f 154/154/154 151/151/151 122/122/122 
f 154/154/154 122/122/122 121/121/121 
f 158/158/158 143/143/143 98/98/98 
f 158/158/158 98/98/98 97/97/97 
f 158/158/158 97/97/97 96/96/96 
f 158/158/158 96/96/96 139/139/139 
f 158/158/158 139/139/139 86/86/86 
f 158/158/158 86/86/86 85/85/85 
f 158/158/158 85/85/85 84/84/84 
f 158/158/158 84/84/84 159/159/159 
f 158/158/158 159/159/159 156/156/156 
f 158/158/158 156/156/156 155/155/155 
f 158/158/158 155/155/155 120/120/120 
f 158/158/158 120/120/120 143/143/143 
f 160/160/160 157/157/157 156/156/156 
f 160/160/160 156/156/156 161/161/161 
f 160/160/160 161/161/161 114/114/114 
f 160/160/160 114/114/114 147/147/147 
f 160/160/160 147/147/147 110/110/110 
f 160/160/160 110/110/110 109/109/109 
f 160/160/160 109/109/109 108/108/108 
f 160/160/160 108/108/108 145/145/145 
f 160/160/160 145/145/145 104/104/104 
f 160/160/160 104/104/104 103/103/103 
f 160/160/160 103/103/103 102/102/102 
f 160/160/160 102/102/102 141/141/141 
f 160/160/160 141/141/141 92/92/92 
f 160/160/160 92/92/92 157/157/157 
f 162/162/162 161/161/161 156/156/156 
f 162/162/162 156/156/156 159/159/159 
f 162/162/162 159/159/159 84/84/84 
f 162/162/162 84/84/84 133/133/133 
f 162/162/162 133/133/133 132/132/132 
f 162/162/162 132/132/132 153/153/153 
f 162/162/162 153/153/153 128/128/128 
f 162/162/162 128/128/128 127/127/127 
f 162/162/162 127/127/127 126/126/126 
f 162/162/162 126/126/126 149/149/149 
f 162/162/162 149/149/149 116/116/116 
f 162/162/162 116/116/116 115/115/115 
f 162/162/162 115/115/115 114/114/114 
f 162/162/162 114/114/114 161/161/161 
# 248 faces

