# 3ds Max Wavefront OBJ Exporter v0.99 - (c)2007 guruware
# File Created: 05.02.2021 20:39:54

#
# object fireplace_mirror
#

v  2.2428 0.9500 -0.0198
v  1.5132 0.9500 -0.0198
v  1.5532 0.9900 -0.0238
v  2.2028 0.9900 -0.0238
v  2.2428 2.2774 -0.0198
v  2.2028 2.2374 -0.0238
v  1.5132 2.2774 -0.0198
v  1.5532 2.2374 -0.0238
# 8 vertices

vn 0.0499 -0.0499 -0.9975
vn -0.0499 -0.0499 -0.9975
vn -0.0374 -0.0374 -0.9986
vn 0.0374 -0.0374 -0.9986
vn 0.0499 0.0499 -0.9975
vn 0.0374 0.0374 -0.9986
vn -0.0499 0.0499 -0.9975
vn -0.0374 0.0374 -0.9986
# 8 vertex normals

vt 1.0000 0.0000 0.0000
vt 0.0000 0.0000 0.0000
vt 0.0548 0.0301 0.0000
vt 0.9452 0.0301 0.0000
vt 1.0000 1.0000 0.0000
vt 0.9452 0.9699 0.0000
vt 0.0000 1.0000 0.0000
vt 0.0548 0.9699 0.0000
# 8 texture coords

o fireplace_mirror
g fireplace_mirror
f 1/1/1 2/2/2 3/3/3 
f 1/1/1 3/3/3 4/4/4 
f 5/5/5 1/1/1 4/4/4 
f 5/5/5 4/4/4 6/6/6 
f 7/7/7 5/5/5 6/6/6 
f 7/7/7 6/6/6 8/8/8 
f 2/2/2 7/7/7 8/8/8 
f 2/2/2 8/8/8 3/3/3 
f 8/8/8 6/6/6 4/4/4 
f 8/8/8 4/4/4 3/3/3 
# 10 faces

