# 3ds Max Wavefront OBJ Exporter v0.99 - (c)2007 guruware
# File Created: 05.02.2021 20:50:55

#
# object fireplace_sofa_legs
#

v  2.8478 0.1025 -2.9865
v  2.8688 0.1025 -2.9865
v  2.8688 -0.0025 -2.9865
v  2.8478 -0.0025 -2.9865
v  2.8473 0.1025 -2.9650
v  2.8473 0.1025 -2.9859
v  2.8473 -0.0025 -2.9859
v  2.8473 -0.0025 -2.9650
v  2.8688 0.1025 -2.9644
v  2.8478 0.1025 -2.9644
v  2.8478 -0.0025 -2.9644
v  2.8688 -0.0025 -2.9644
v  2.8692 0.1025 -2.9863
v  2.8692 -0.0025 -2.9863
v  2.8693 0.1025 -2.9859
v  2.8693 -0.0025 -2.9859
v  2.8692 -0.0025 -2.9646
v  2.8692 0.1025 -2.9646
v  2.8693 -0.0025 -2.9650
v  2.8693 0.1025 -2.9650
v  2.8475 -0.0025 -2.9646
v  2.8475 0.1025 -2.9646
v  2.8475 -0.0025 -2.9863
v  2.8475 0.1025 -2.9863
v  0.9454 0.1025 -2.9865
v  0.9663 0.1025 -2.9865
v  0.9663 -0.0025 -2.9865
v  0.9454 -0.0025 -2.9865
v  0.9448 0.1025 -2.9650
v  0.9448 0.1025 -2.9859
v  0.9448 -0.0025 -2.9859
v  0.9448 -0.0025 -2.9650
v  0.9663 0.1025 -2.9644
v  0.9454 0.1025 -2.9644
v  0.9454 -0.0025 -2.9644
v  0.9663 -0.0025 -2.9644
v  0.9667 0.1025 -2.9863
v  0.9667 -0.0025 -2.9863
v  0.9668 0.1025 -2.9859
v  0.9668 -0.0025 -2.9859
v  0.9667 -0.0025 -2.9646
v  0.9667 0.1025 -2.9646
v  0.9668 -0.0025 -2.9650
v  0.9668 0.1025 -2.9650
v  0.9450 -0.0025 -2.9646
v  0.9450 0.1025 -2.9646
v  0.9450 -0.0025 -2.9863
v  0.9450 0.1025 -2.9863
v  0.9454 0.1025 -3.5515
v  0.9663 0.1025 -3.5515
v  0.9663 -0.0025 -3.5515
v  0.9454 -0.0025 -3.5515
v  0.9448 0.1025 -3.5301
v  0.9448 0.1025 -3.5510
v  0.9448 -0.0025 -3.5510
v  0.9448 -0.0025 -3.5301
v  0.9663 0.1025 -3.5295
v  0.9454 0.1025 -3.5295
v  0.9454 -0.0025 -3.5295
v  0.9663 -0.0025 -3.5295
v  0.9667 0.1025 -3.5514
v  0.9667 -0.0025 -3.5514
v  0.9668 0.1025 -3.5510
v  0.9668 -0.0025 -3.5510
v  0.9667 -0.0025 -3.5297
v  0.9667 0.1025 -3.5297
v  0.9668 -0.0025 -3.5301
v  0.9668 0.1025 -3.5301
v  0.9450 -0.0025 -3.5297
v  0.9450 0.1025 -3.5297
v  0.9450 -0.0025 -3.5514
v  0.9450 0.1025 -3.5514
v  2.8478 0.1025 -3.5515
v  2.8688 0.1025 -3.5515
v  2.8688 -0.0025 -3.5515
v  2.8478 -0.0025 -3.5515
v  2.8473 0.1025 -3.5301
v  2.8473 0.1025 -3.5510
v  2.8473 -0.0025 -3.5510
v  2.8473 -0.0025 -3.5301
v  2.8688 0.1025 -3.5295
v  2.8478 0.1025 -3.5295
v  2.8478 -0.0025 -3.5295
v  2.8688 -0.0025 -3.5295
v  2.8692 0.1025 -3.5514
v  2.8692 -0.0025 -3.5514
v  2.8693 0.1025 -3.5510
v  2.8693 -0.0025 -3.5510
v  2.8692 -0.0025 -3.5297
v  2.8692 0.1025 -3.5297
v  2.8693 -0.0025 -3.5301
v  2.8693 0.1025 -3.5301
v  2.8475 -0.0025 -3.5297
v  2.8475 0.1025 -3.5297
v  2.8475 -0.0025 -3.5514
v  2.8475 0.1025 -3.5514
# 96 vertices

vn -0.2899 0.0000 -0.9571
vn 0.2298 0.0000 -0.9732
vn -0.9732 0.0000 0.2299
vn -0.9732 0.0000 -0.2298
vn 0.2298 0.0000 0.9732
vn -0.2899 0.0000 0.9571
vn 0.7801 0.0000 -0.6256
vn 0.9925 0.0000 -0.1220
vn 0.7801 0.0000 0.6257
vn 0.9925 0.0000 0.1221
vn -0.7497 0.0000 0.6618
vn -0.7497 0.0000 -0.6617
vn -0.2298 0.0000 -0.9732
vn -0.9732 0.0000 0.2298
vn -0.9733 0.0000 -0.2297
vn -0.2298 0.0000 0.9732
vn 0.9925 0.0000 -0.1221
vn 0.9925 0.0000 0.1222
vn -0.7071 0.0000 0.7071
vn -0.7072 0.0000 -0.7070
vn -0.1223 0.0000 -0.9925
vn 0.1223 0.0000 -0.9925
vn -0.9733 0.0000 0.2297
vn 0.2428 0.0000 -0.9701
vn 0.9701 0.0000 -0.2425
vn 0.9925 0.0000 -0.1222
vn 0.7801 0.0000 0.6256
vn -0.7072 0.0000 0.7070
vn -0.6258 0.0000 -0.7800
vn -0.1604 0.0000 -0.9870
vn -0.9732 0.0000 -0.2299
vn 0.9702 0.0000 -0.2424
vn 0.9925 0.0000 0.1220
vn -0.7497 0.0000 0.6617
vn -0.6553 0.0000 -0.7554
# 35 vertex normals

vt 0.1020 0.8468 0.0000
vt 0.1020 0.7575 0.0000
vt 0.5488 0.7575 0.0000
vt 0.5488 0.8468 0.0000
vt 0.1020 0.1854 0.0000
vt 0.1020 0.0965 0.0000
vt 0.5489 0.0965 0.0000
vt 0.5489 0.1854 0.0000
vt 0.1020 0.9385 0.0000
vt 0.1020 0.8492 0.0000
vt 0.5488 0.8492 0.0000
vt 0.5488 0.9385 0.0000
vt 0.1020 0.7558 0.0000
vt 0.5488 0.7558 0.0000
vt 0.6451 0.2035 0.0000
vt 0.6451 0.6503 0.0000
vt 0.6434 0.6503 0.0000
vt 0.6434 0.2035 0.0000
vt 0.5488 0.9402 0.0000
vt 0.1020 0.9402 0.0000
vt 0.5528 0.6503 0.0000
vt 0.5528 0.2035 0.0000
vt 0.5545 0.2035 0.0000
vt 0.5545 0.6503 0.0000
vt 0.5489 0.1871 0.0000
vt 0.1020 0.1871 0.0000
vt 0.5489 0.1880 0.0000
vt 0.1020 0.1880 0.0000
vt 0.1020 0.0939 0.0000
vt 0.5489 0.0939 0.0000
vt 0.5489 0.0947 0.0000
vt 0.1020 0.0947 0.0000
vt 0.1020 0.3794 0.0000
vt 0.1020 0.2905 0.0000
vt 0.5488 0.2905 0.0000
vt 0.5488 0.3794 0.0000
vt 0.1020 0.4728 0.0000
vt 0.1020 0.3839 0.0000
vt 0.5488 0.3839 0.0000
vt 0.5488 0.4728 0.0000
vt 0.0911 0.9914 0.0000
vt 0.0022 0.9914 0.0000
vt 0.0022 0.5446 0.0000
vt 0.0911 0.5446 0.0000
vt 0.1020 0.2888 0.0000
vt 0.5488 0.2888 0.0000
vt 0.0005 0.5412 0.0000
vt 0.0005 0.0939 0.0000
vt 0.0023 0.0939 0.0000
vt 0.0023 0.5412 0.0000
vt 0.0928 0.5446 0.0000
vt 0.0928 0.9914 0.0000
vt 0.0902 0.0939 0.0000
vt 0.0902 0.5412 0.0000
vt 0.0886 0.5412 0.0000
vt 0.0886 0.0939 0.0000
vt 0.5488 0.4745 0.0000
vt 0.1020 0.4745 0.0000
vt 0.0005 0.9914 0.0000
vt 0.0005 0.5446 0.0000
vt 0.5488 0.3811 0.0000
vt 0.1020 0.3811 0.0000
vt 0.1020 0.3822 0.0000
vt 0.5488 0.3822 0.0000
vt 0.7368 0.6503 0.0000
vt 0.6479 0.6503 0.0000
vt 0.6479 0.2035 0.0000
vt 0.7368 0.2035 0.0000
vt 0.1020 0.5662 0.0000
vt 0.1020 0.4773 0.0000
vt 0.5488 0.4773 0.0000
vt 0.5488 0.5662 0.0000
vt 0.1020 0.6596 0.0000
vt 0.1020 0.5707 0.0000
vt 0.5488 0.5707 0.0000
vt 0.5488 0.6596 0.0000
vt 0.6461 0.6503 0.0000
vt 0.6461 0.2035 0.0000
vt 0.4518 0.0902 0.0000
vt 0.0046 0.0902 0.0000
vt 0.0046 0.0884 0.0000
vt 0.4518 0.0884 0.0000
vt 0.5488 0.6613 0.0000
vt 0.1020 0.6613 0.0000
vt 0.0046 0.0005 0.0000
vt 0.4518 0.0005 0.0000
vt 0.4518 0.0021 0.0000
vt 0.0046 0.0021 0.0000
vt 0.5488 0.5679 0.0000
vt 0.1020 0.5679 0.0000
vt 0.1020 0.5690 0.0000
vt 0.5488 0.5690 0.0000
vt 0.7385 0.2035 0.0000
vt 0.7385 0.6503 0.0000
vt 0.1020 0.4756 0.0000
vt 0.5488 0.4756 0.0000
vt 0.5528 0.1931 0.0000
vt 0.5528 0.1037 0.0000
vt 0.9995 0.1037 0.0000
vt 0.9995 0.1931 0.0000
vt 0.1020 0.2820 0.0000
vt 0.1020 0.1931 0.0000
vt 0.5489 0.1931 0.0000
vt 0.5489 0.2820 0.0000
vt 0.1020 0.7517 0.0000
vt 0.1020 0.6624 0.0000
vt 0.5488 0.6624 0.0000
vt 0.5488 0.7517 0.0000
vt 0.5528 0.1020 0.0000
vt 0.9995 0.1020 0.0000
vt 0.4553 0.0005 0.0000
vt 0.9026 0.0005 0.0000
vt 0.9026 0.0023 0.0000
vt 0.4553 0.0023 0.0000
vt 0.5488 0.7534 0.0000
vt 0.1020 0.7534 0.0000
vt 0.9026 0.0902 0.0000
vt 0.4553 0.0902 0.0000
vt 0.4553 0.0886 0.0000
vt 0.9026 0.0886 0.0000
vt 0.5489 0.2837 0.0000
vt 0.1020 0.2837 0.0000
vt 0.5489 0.2846 0.0000
vt 0.1020 0.2846 0.0000
vt 0.9995 0.1943 0.0000
vt 0.5528 0.1943 0.0000
vt 0.1020 0.1914 0.0000
vt 0.5489 0.1914 0.0000
# 128 texture coords

o fireplace_sofa_legs
g fireplace_sofa_legs
f 1/1/1 2/2/2 3/3/2 
f 1/1/1 3/3/2 4/4/1 
f 5/5/3 6/6/4 7/7/4 
f 5/5/3 7/7/4 8/8/3 
f 9/9/5 10/10/6 11/11/6 
f 9/9/5 11/11/6 12/12/5 
f 3/3/2 2/2/2 13/13/7 
f 3/3/2 13/13/7 14/14/7 
f 14/15/7 13/16/7 15/17/8 
f 14/15/7 15/17/8 16/18/8 
f 9/9/5 12/12/5 17/19/9 
f 9/9/5 17/19/9 18/20/9 
f 18/21/9 17/22/9 19/23/10 
f 18/21/9 19/23/10 20/24/10 
f 5/5/3 8/8/3 21/25/11 
f 5/5/3 21/25/11 22/26/11 
f 22/26/11 21/25/11 11/27/6 
f 22/26/11 11/27/6 10/28/6 
f 1/29/1 4/30/1 23/31/12 
f 1/29/1 23/31/12 24/32/12 
f 24/32/12 23/31/12 7/7/4 
f 24/32/12 7/7/4 6/6/4 
f 15/17/8 20/24/10 19/23/10 
f 15/17/8 19/23/10 16/18/8 
f 25/33/13 26/34/2 27/35/2 
f 25/33/13 27/35/2 28/36/13 
f 29/37/14 30/38/15 31/39/15 
f 29/37/14 31/39/15 32/40/14 
f 33/41/5 34/42/16 35/43/16 
f 33/41/5 35/43/16 36/44/5 
f 27/35/2 26/34/2 37/45/7 
f 27/35/2 37/45/7 38/46/7 
f 38/47/7 37/48/7 39/49/17 
f 38/47/7 39/49/17 40/50/17 
f 33/41/5 36/44/5 41/51/9 
f 33/41/5 41/51/9 42/52/9 
f 42/53/9 41/54/9 43/55/18 
f 42/53/9 43/55/18 44/56/18 
f 29/37/14 32/40/14 45/57/19 
f 29/37/14 45/57/19 46/58/19 
f 46/59/19 45/60/19 35/43/16 
f 46/59/19 35/43/16 34/42/16 
f 25/33/13 28/36/13 47/61/20 
f 25/33/13 47/61/20 48/62/20 
f 48/63/20 47/64/20 31/39/15 
f 48/63/20 31/39/15 30/38/15 
f 39/49/17 44/56/18 43/55/18 
f 39/49/17 43/55/18 40/50/17 
f 49/65/21 50/66/22 51/67/22 
f 49/65/21 51/67/22 52/68/21 
f 53/69/23 54/70/4 55/71/4 
f 53/69/23 55/71/4 56/72/23 
f 57/73/5 58/74/16 59/75/16 
f 57/73/5 59/75/16 60/76/5 
f 51/67/22 50/66/22 61/77/24 
f 51/67/22 61/77/24 62/78/24 
f 62/79/25 61/80/25 63/81/26 
f 62/79/25 63/81/26 64/82/26 
f 57/73/5 60/76/5 65/83/27 
f 57/73/5 65/83/27 66/84/27 
f 66/85/27 65/86/27 67/87/10 
f 66/85/27 67/87/10 68/88/10 
f 53/69/23 56/72/23 69/89/28 
f 53/69/23 69/89/28 70/90/28 
f 70/91/28 69/92/28 59/75/16 
f 70/91/28 59/75/16 58/74/16 
f 49/65/21 52/68/21 71/93/29 
f 49/65/21 71/93/29 72/94/29 
f 72/95/29 71/96/29 55/71/4 
f 72/95/29 55/71/4 54/70/4 
f 63/81/26 68/88/10 67/87/10 
f 63/81/26 67/87/10 64/82/26 
f 73/97/30 74/98/22 75/99/22 
f 73/97/30 75/99/22 76/100/30 
f 77/101/14 78/102/31 79/103/31 
f 77/101/14 79/103/31 80/104/14 
f 81/105/5 82/106/6 83/107/6 
f 81/105/5 83/107/6 84/108/5 
f 75/99/22 74/98/22 85/109/24 
f 75/99/22 85/109/24 86/110/24 
f 86/111/32 85/112/32 87/113/17 
f 86/111/32 87/113/17 88/114/17 
f 81/105/5 84/108/5 89/115/27 
f 81/105/5 89/115/27 90/116/27 
f 90/117/27 89/118/27 91/119/33 
f 90/117/27 91/119/33 92/120/33 
f 77/101/14 80/104/14 93/121/34 
f 77/101/14 93/121/34 94/122/34 
f 94/122/34 93/121/34 83/123/6 
f 94/122/34 83/123/6 82/124/6 
f 73/97/30 76/100/30 95/125/35 
f 73/97/30 95/125/35 96/126/35 
f 96/127/35 95/128/35 79/103/31 
f 96/127/35 79/103/31 78/102/31 
f 87/113/17 92/120/33 91/119/33 
f 87/113/17 91/119/33 88/114/17 
# 96 faces

