# 3ds Max Wavefront OBJ Exporter v0.99 - (c)2007 guruware
# File Created: 05.02.2021 20:55:00

#
# object fireplace_translucent
#

v  0.9173 1.6317 -3.5889
v  0.9173 1.6409 -3.5889
v  0.9173 1.7165 -3.5889
v  0.9173 1.7268 -3.5889
v  0.9173 1.8074 -3.5889
v  0.9173 1.8178 -3.5889
v  0.9173 1.9002 -3.5889
v  0.9173 1.9096 -3.5889
v  0.9129 1.9096 -3.5885
v  0.8947 1.9096 -3.5867
v  0.8764 1.9096 -3.5854
v  0.8579 1.9096 -3.5848
v  0.8463 1.9096 -3.5844
v  0.8273 1.9096 -3.5838
v  0.8084 1.9096 -3.5834
v  0.7894 1.9096 -3.5840
v  0.7777 1.9096 -3.5844
v  0.7583 1.9096 -3.5850
v  0.7389 1.9096 -3.5858
v  0.7197 1.9096 -3.5876
v  0.7133 1.9096 -3.5882
v  0.7133 1.9002 -3.5882
v  0.7133 1.8178 -3.5882
v  0.7133 1.8074 -3.5882
v  0.7133 1.7268 -3.5882
v  0.7133 1.7165 -3.5882
v  0.7133 1.6409 -3.5882
v  0.7133 1.6317 -3.5882
v  0.7197 1.6317 -3.5876
v  0.7389 1.6317 -3.5858
v  0.7583 1.6317 -3.5850
v  0.7777 1.6317 -3.5844
v  0.7894 1.6317 -3.5840
v  0.8084 1.6317 -3.5834
v  0.8273 1.6317 -3.5838
v  0.8463 1.6317 -3.5844
v  0.8579 1.6317 -3.5848
v  0.8764 1.6317 -3.5854
v  0.8947 1.6317 -3.5867
v  0.9129 1.6317 -3.5885
v  3.1566 1.6317 -3.5889
v  3.1566 1.6409 -3.5889
v  3.1566 1.7165 -3.5889
v  3.1566 1.7268 -3.5889
v  3.1566 1.8074 -3.5889
v  3.1566 1.8178 -3.5889
v  3.1566 1.9002 -3.5889
v  3.1566 1.9096 -3.5889
v  3.1521 1.9096 -3.5885
v  3.1339 1.9096 -3.5867
v  3.1156 1.9096 -3.5854
v  3.0972 1.9096 -3.5848
v  3.0856 1.9096 -3.5844
v  3.0666 1.9096 -3.5838
v  3.0476 1.9096 -3.5834
v  3.0286 1.9096 -3.5840
v  3.0170 1.9096 -3.5844
v  2.9975 1.9096 -3.5850
v  2.9781 1.9096 -3.5858
v  2.9589 1.9096 -3.5876
v  2.9526 1.9096 -3.5882
v  2.9526 1.9002 -3.5882
v  2.9526 1.8178 -3.5882
v  2.9526 1.8074 -3.5882
v  2.9526 1.7268 -3.5882
v  2.9526 1.7165 -3.5882
v  2.9526 1.6409 -3.5882
v  2.9526 1.6317 -3.5882
v  2.9589 1.6317 -3.5876
v  2.9781 1.6317 -3.5858
v  2.9975 1.6317 -3.5850
v  3.0170 1.6317 -3.5844
v  3.0286 1.6317 -3.5840
v  3.0476 1.6317 -3.5834
v  3.0666 1.6317 -3.5838
v  3.0856 1.6317 -3.5844
v  3.0972 1.6317 -3.5848
v  3.1156 1.6317 -3.5854
v  3.1339 1.6317 -3.5867
v  3.1521 1.6317 -3.5885
# 80 vertices

vn 1.0000 0.0000 -0.0000
vn 0.0062 -0.0084 0.9999
vn 0.0906 0.0000 0.9959
vn 0.0945 0.0001 0.9955
vn 0.0839 -0.0011 0.9965
vn 0.0499 -0.0052 0.9987
vn 0.0336 -0.0076 0.9994
vn 0.0328 -0.0078 0.9994
vn 0.0253 -0.0101 0.9996
vn -0.0115 -0.0243 0.9996
vn -0.0332 -0.0329 0.9989
vn -0.0320 -0.0323 0.9990
vn -0.0377 -0.0356 0.9987
vn -0.0766 -0.0603 0.9952
vn -0.0931 -0.0709 0.9931
vn -0.0544 -0.0424 0.9976
vn 0.0034 0.0000 1.0000
vn 0.0000 1.0000 -0.0000
vn 0.0000 -1.0000 -0.0000
vn 0.0063 -0.0084 0.9999
vn 0.0886 0.0000 0.9961
vn 0.0935 0.0001 0.9956
vn 0.0839 -0.0010 0.9965
vn 0.0337 -0.0076 0.9994
vn 0.0253 -0.0102 0.9996
vn -0.0334 -0.0330 0.9989
vn -0.0941 -0.0716 0.9930
vn -0.0553 -0.0431 0.9975
# 28 vertex normals

vt 0.4988 0.0005 0.0000
vt 0.4988 0.0170 0.0000
vt 0.4988 0.1526 0.0000
vt 0.4988 0.1710 0.0000
vt 0.4988 0.3156 0.0000
vt 0.4988 0.3342 0.0000
vt 0.4988 0.4820 0.0000
vt 0.4988 0.4988 0.0000
vt 0.4881 0.4988 0.0000
vt 0.4436 0.4988 0.0000
vt 0.3989 0.4988 0.0000
vt 0.3537 0.4988 0.0000
vt 0.3254 0.4988 0.0000
vt 0.2790 0.4988 0.0000
vt 0.2328 0.4988 0.0000
vt 0.1864 0.4988 0.0000
vt 0.1578 0.4988 0.0000
vt 0.1104 0.4988 0.0000
vt 0.0630 0.4988 0.0000
vt 0.0161 0.4988 0.0000
vt 0.0005 0.4988 0.0000
vt 0.0005 0.4820 0.0000
vt 0.0005 0.3342 0.0000
vt 0.0005 0.3156 0.0000
vt 0.0005 0.1710 0.0000
vt 0.0005 0.1526 0.0000
vt 0.0005 0.0170 0.0000
vt 0.0005 0.0005 0.0000
vt 0.0161 0.0005 0.0000
vt 0.0630 0.0005 0.0000
vt 0.1104 0.0005 0.0000
vt 0.1578 0.0005 0.0000
vt 0.1864 0.0005 0.0000
vt 0.2328 0.0005 0.0000
vt 0.2790 0.0005 0.0000
vt 0.3254 0.0005 0.0000
vt 0.3537 0.0005 0.0000
vt 0.3989 0.0005 0.0000
vt 0.4436 0.0005 0.0000
vt 0.4881 0.0005 0.0000
vt 0.9995 0.0005 0.0000
vt 0.9995 0.0170 0.0000
vt 0.9995 0.1526 0.0000
vt 0.9995 0.1710 0.0000
vt 0.9995 0.3155 0.0000
vt 0.9995 0.3342 0.0000
vt 0.9995 0.4819 0.0000
vt 0.9995 0.4988 0.0000
vt 0.9885 0.4988 0.0000
vt 0.9441 0.4988 0.0000
vt 0.8994 0.4988 0.0000
vt 0.8544 0.4988 0.0000
vt 0.8261 0.4988 0.0000
vt 0.7797 0.4988 0.0000
vt 0.7333 0.4988 0.0000
vt 0.6868 0.4988 0.0000
vt 0.6585 0.4988 0.0000
vt 0.6109 0.4988 0.0000
vt 0.5635 0.4988 0.0000
vt 0.5166 0.4988 0.0000
vt 0.5012 0.4988 0.0000
vt 0.5012 0.4819 0.0000
vt 0.5012 0.3342 0.0000
vt 0.5012 0.3155 0.0000
vt 0.5012 0.1710 0.0000
vt 0.5012 0.1526 0.0000
vt 0.5012 0.0170 0.0000
vt 0.5012 0.0005 0.0000
vt 0.5166 0.0005 0.0000
vt 0.5635 0.0005 0.0000
vt 0.6109 0.0005 0.0000
vt 0.6585 0.0005 0.0000
vt 0.6868 0.0005 0.0000
vt 0.7333 0.0005 0.0000
vt 0.7797 0.0005 0.0000
vt 0.8261 0.0005 0.0000
vt 0.8544 0.0005 0.0000
vt 0.8994 0.0005 0.0000
vt 0.9441 0.0005 0.0000
vt 0.9885 0.0005 0.0000
# 80 texture coords

o fireplace_translucent
g fireplace_translucent
f 1/1/1 2/2/1 3/3/1 
f 1/1/1 3/3/1 4/4/1 
f 1/1/1 4/4/1 5/5/1 
f 1/1/1 5/5/1 6/6/1 
f 1/1/1 6/6/1 7/7/1 
f 1/1/1 7/7/1 8/8/1 
f 1/1/2 8/8/3 9/9/4 
f 1/1/2 9/9/4 10/10/5 
f 1/1/2 10/10/5 11/11/6 
f 1/1/2 11/11/6 12/12/7 
f 1/1/2 12/12/7 13/13/8 
f 1/1/2 13/13/8 14/14/9 
f 1/1/2 14/14/9 15/15/10 
f 1/1/2 15/15/10 16/16/11 
f 1/1/2 16/16/11 17/17/12 
f 1/1/2 17/17/12 18/18/13 
f 1/1/2 18/18/13 19/19/14 
f 1/1/2 19/19/14 20/20/15 
f 1/1/2 20/20/15 21/21/16 
f 1/1/2 21/21/16 22/22/17 
f 1/1/2 22/22/17 23/23/17 
f 1/1/2 23/23/17 24/24/17 
f 1/1/2 24/24/17 25/25/17 
f 1/1/2 25/25/17 26/26/17 
f 1/1/2 26/26/17 27/27/17 
f 1/1/2 27/27/17 28/28/17 
f 1/1/18 28/28/18 29/29/18 
f 1/1/18 29/29/18 30/30/18 
f 1/1/18 30/30/18 31/31/18 
f 1/1/18 31/31/18 32/32/18 
f 1/1/18 32/32/18 33/33/18 
f 1/1/18 33/33/18 34/34/18 
f 1/1/18 34/34/18 35/35/18 
f 1/1/18 35/35/18 36/36/18 
f 1/1/18 36/36/18 37/37/18 
f 1/1/18 37/37/18 38/38/18 
f 1/1/18 38/38/18 39/39/18 
f 1/1/19 39/39/19 40/40/19 
f 41/41/1 42/42/1 43/43/1 
f 41/41/1 43/43/1 44/44/1 
f 41/41/1 44/44/1 45/45/1 
f 41/41/1 45/45/1 46/46/1 
f 41/41/1 46/46/1 47/47/1 
f 41/41/1 47/47/1 48/48/1 
f 41/41/20 48/48/21 49/49/22 
f 41/41/20 49/49/22 50/50/23 
f 41/41/20 50/50/23 51/51/6 
f 41/41/20 51/51/6 52/52/24 
f 41/41/20 52/52/24 53/53/8 
f 41/41/20 53/53/8 54/54/25 
f 41/41/20 54/54/25 55/55/10 
f 41/41/20 55/55/10 56/56/26 
f 41/41/20 56/56/26 57/57/12 
f 41/41/20 57/57/12 58/58/13 
f 41/41/20 58/58/13 59/59/14 
f 41/41/20 59/59/14 60/60/27 
f 41/41/20 60/60/27 61/61/28 
f 41/41/20 61/61/28 62/62/17 
f 41/41/20 62/62/17 63/63/17 
f 41/41/20 63/63/17 64/64/17 
f 41/41/20 64/64/17 65/65/17 
f 41/41/20 65/65/17 66/66/17 
f 41/41/20 66/66/17 67/67/17 
f 41/41/20 67/67/17 68/68/17 
f 41/41/18 68/68/18 69/69/18 
f 41/41/18 69/69/18 70/70/18 
f 41/41/18 70/70/18 71/71/18 
f 41/41/18 71/71/18 72/72/18 
f 41/41/18 72/72/18 73/73/18 
f 41/41/18 73/73/18 74/74/18 
f 41/41/18 74/74/18 75/75/18 
f 41/41/18 75/75/18 76/76/18 
f 41/41/18 76/76/18 77/77/18 
f 41/41/18 77/77/18 78/78/18 
f 41/41/18 78/78/18 79/79/18 
f 41/41/19 79/79/19 80/80/19 
# 76 faces

